<?xml version="1.0" encoding="UTF-8"?>
<svg id="Layer_1" data-name="Layer 1" xmlns="http://www.w3.org/2000/svg" viewBox="0 0 884.5746 388.4969">
  <defs>
    <style>
      .cls-1 {
        fill: none;
      }

      .cls-2 {
        stroke: #832319;
        stroke-miterlimit: 10;
      }

      .cls-2, .cls-3 {
        fill: #832319;
      }
    </style>
  </defs>
  <path class="cls-3" d="M565.8899,276.4297l-.0007-133.8724h24.2178l.6261,21.5273c4.3047-6.8154,9.998-12.1094,17.0869-15.876,7.084-3.7676,15.0225-5.6514,23.8145-5.6514,10.4014,0,19.4619,2.1533,27.1777,6.458,7.7109,4.3057,13.542,10.7637,17.4902,19.375,4.6631-8.0732,11.0742-14.3965,19.2393-18.9707,8.1611-4.5752,16.9951-6.8623,26.5059-6.8623,16.1445,0,29.0146,4.8438,38.6133,14.5312,9.5947,9.6865,13.7719,23.2672,13.7719,43.3561l-.0008,75.9851h-24.2178l.0008-73.5632c0-13.6309-2.6914-23.8564-8.0732-30.6758-5.3809-6.8154-13.2773-10.2256-23.6787-10.2256s-19.0635,4.083-25.9668,12.2441c-6.9082,8.165-10.3604,19.6895-10.3604,34.5771l-.0008,67.6433h-23.9482l.0008-73.5632c0-13.6309-2.7373-23.8564-8.208-30.6758-5.4736-6.8154-13.3193-10.2256-23.5449-10.2256-10.4062,0-19.0625,4.083-25.9668,12.2441-6.9072,8.165-10.3594,19.6895-10.3594,34.5771l-.0008,67.6433h-24.2178Z"/>
  <path class="cls-3" d="M317.6339,276.3772c-10.7637,0-19.8242-1.8418-27.1787-5.5166-7.3574-3.6748-12.873-8.6113-16.5488-14.7998-3.6777-6.1895-5.5156-12.7812-5.5156-19.7783,0-14.5303,5.2471-25.6045,15.7422-33.2314,10.4941-7.623,24.2588-11.4365,41.3047-11.4365,7.5342,0,12.3744-.0096,20.4502,1.6143,6.0694,1.2205,14.5303,7.7691,15.4397,9.8734v-5.9199c0-11.4785-3.0059-20.1357-9.0137-25.9668-6.0127-5.8271-14.0391-8.7451-24.084-8.7451-8.2529,0-15.3838,1.707-21.3916,5.1123-6.0127,3.4102-9.7344,9.1494-11.168,17.2217h-24.2168c1.0762-9.5068,4.3477-17.3984,9.8213-23.6797,5.4697-6.2773,12.3311-10.9404,20.585-13.9922,8.249-3.0488,17.041-4.5752,26.3701-4.5752,19.0127,0,33.3213,4.9785,42.9199,14.9346,9.5947,9.9561,14.3955,23.1875,14.3955,39.6904l-.3713,33.9879c0,6.458.4043,11.2139,1.2109,14.2617.8076,3.0527,2.1953,4.9355,4.1709,5.6504,1.9727.7197,4.6631,1.0771,8.0732,1.0771h1.8828l-.0012,24.2703h-5.1123c-8.791,0-15.9688-1.4336-21.5264-4.3057-5.5625-2.8672-9.3288-11.8923-11.3005-20.5037-4.1289,6.9971-9.8223,12.875-17.0869,17.626-7.2656,4.751-16.5488,7.1309-27.8506,7.1309ZM321.4005,256.7337c7.8926,0,14.666-1.9717,20.3164-5.9199,5.6504-3.9443,10.0908-9.1494,13.3193-15.6074,3.2295-6.458,5.0205-13.2734,5.3818-20.4502-4.1289-1.2529-9.1484-2.376-15.0684-3.3633-5.9199-.9844-11.8398-1.4805-17.7598-1.4805-12.2012,0-21.0352,2.3799-26.5059,7.1309-5.4736,4.7549-8.207,10.7217-8.207,17.8945,0,6.2812,2.4648,11.4824,7.4004,15.6064,4.9316,4.1289,11.9746,6.1895,21.123,6.1895Z"/>
  <g>
    <path class="cls-3" d="M418.9359,269.1717c5.0222-3.5051,7.521-8.4087,8.9673-13.9248,1.3555-5.1721,2.2725-10.4065,2.8694-15.6719.2986-2.6328.5168-5.2734.6702-7.918l.0544-.9219.0483-.3044.0801-.6089c.0457-.406.0771-.8123.0959-1.2183.2717-5.885-1.071-11.761-.8062-17.6575.4438-9.8972-1.9321-19.7905-1.6128-29.7009.2412-7.4868-1.3513-14.9775-1.8816-22.468-.3027-4.2751-.9202-8.5432-.4673-12.8318.5251-4.9739-.657-9.9636-1.1287-14.9463-.6167-6.519-1.1721-13.0386-1.9407-19.5562-.3354-2.8452-.8474-5.6855-.7886-8.5359.0303-1.4644-.0298-2.9275-.0457-4.3914-.0081-.7319-.0051-1.4641.0259-2.1968.0154-.3662.0376-.7327.0688-1.0991.0081-.1187.0164-.123.0254-.3352l.0288-.8965.0691-1.7937c.4634-10.7664-1.1143-21.5889.835-32.3535.3635-2.0056-.594-3.9966-2.834-4.4897-1.9241-.4233-2.9668,1.3008-3.5125,2.7319-1.5002,3.9338-3.4324,7.6694-5.4363,11.3684-1.0212,1.8855-1.6658,3.7651-2.033,5.8865-.9072,5.24-1.4209,10.5098-1.7161,15.7876l-.1831,3.8809c-.0491.4048-.0874.8098-.1174,1.2146-.0603.8098-.0876,1.6194-.1042,2.4277-.0942,4.5977.5295,9.2002,1.2712,13.7947.3213,1.9885-1.2373,3.9436-.5364,5.9243.2241.6338.4309,1.2729.4014,1.9084-.1223,2.6609-.7791,5.3267-.4226,7.981.6321,4.709-.8208,9.4126-.0042,14.1174.0276.1602.0476.3245-.0381.4817-1.8535,3.4058-.6868,6.8486-.3372,10.241.5015,4.8638.8269,9.7373,1.7654,14.5991.21,1.0869-1.4167,2.1506-.6494,3.1819,1.8528,2.4895.9607,5.0093,1.554,7.51,1.2681,5.3416.1455,10.6934.4924,16.0398.0625.9646.5447,1.9429.146,2.8901-.562,1.3347-.3157,2.6311.4258,3.9441.2954.5232.1697,1.0698.1438,1.6052-.1106,2.2798-.6072,4.5635-.2969,6.8379.364,2.6672-.6443,5.3208-.3645,7.9802.2195,2.0854-.2646,4.1609-.4565,6.2407-.1174,1.2751-.02,2.5518.1379,3.8289l.2625,1.916.1289.958.0149.1196.0146.3513.0281.7808.0505,1.5613c.2336,8.0112.4673,16.0222.7329,25.1321-.9653,2.5002,1.2253,5.7378,1.501,9.2024.252,3.1663,1.9651,3.3757,4.8037,1.395Z"/>
    <path class="cls-3" d="M418.9596,275.1345c5.0847-3.4185,7.7014-8.1992,9.363-13.5701,1.5691-5.0334,2.7668-10.0959,3.7439-15.1582.4841-2.532.9185-5.063,1.3201-7.5862l.1414-.8933.0896-.4202.1643-.8408c.1072-.5593.2002-1.1199.2805-1.6816.5833-4.0676.8462-8.1394,1.2312-12.1599.3862-4.012.8911-7.9949,1.967-11.7002.5901-2.0217,1.1658-3.9902,1.7495-5.8579.5823-1.8599,1.1948-3.6233,1.8032-5.0625.2993-.7375.6013-1.3337.8376-1.8052.2888-.54.2583-.5576.3333-.7463.0093-.0208.0095-.0464.0247-.0669-.0132-.0029.1519-.1367.2393-.2134l.6177-.5256,1.2039-1.0029.5713-.4634.2458-.1985c.0317-.0344.0352-.0432.0537-.0676.0598-.0835.1235-.1741.2031-.2437.0857-.0732.1809-.1306.2822-.1965.0195-.0081.0203-.0129.0552-.0254l.1414-.0459.3054-.0879c.2014-.0605.4241-.115.6479-.1692.8972-.2175,1.8936-.3906,2.9175-.5249,1.0352-.1243,2.0972-.2185,3.1892-.2546.5391-.0295,1.0972-.0237,1.6462-.0295l1.8025.0244,6.5479.1299c1.9702.0283,3.9473.2703,4.1775.2534,4.0586,1.4021,8.2737,3.9607,11.5935,7.77,3.3801,3.9265,6.5432,8.6636,8.0935,14.1843.8848,3.1963,1.9976,6.3442,3.1035,9.5735,1.0613,3.2419,2.1794,6.5312,2.9287,9.9341,1.0076,4.4404,1.7915,8.9722,2.4204,13.5471.3186,2.2874.5842,4.5874.833,6.8945l.3376,3.4668.1501,1.8125.125,2.3923c.1553,2.7498.2229,5.4263.2393,8.0454.0088,1.3101-.0027,2.6067-.0466,3.907l-.019.4875-.009.2424.1028.1306c.0181.1323.269.0493.4158.0627l.5039-.019,1.9866-.0466c2.698-.0283,5.457-.1482,8.1663-.2231,1.3574-.0374,2.7078-.0637,4.0642-.0625l1.0176.0066.8003.0229.4485.0156.897.0093,1.7947.0303c10.7739.2295,21.5596-1.583,32.364.1321,2.0132.3198,3.9827-.6807,4.427-2.9309.3816-1.9329-1.365-2.9377-2.8074-3.4524-3.9656-1.4143-7.7422-3.2649-11.4839-5.188-1.9072-.98-3.8003-1.5837-5.9292-1.9048-5.2583-.793-10.5383-1.1921-15.821-1.3726l-3.8999-.0984-.8845-.0466-.2212-.0095c-.0273-.0039-.0129-.0088-.0212-.0127l-.0168-.0239c-.0422-.0593-.0706-.0862-.1001-.1021-.0408-.0227-.0881-.0002-.1875.0586-.0815.0425-.3032.2065-.3843.1851-.231.0271-.5645-.0771-.9329-.5164-.0232-.0479-.0308.0115-.041-.0767-.0078-.1899-.0093-.3799-.0054-.5693.0076-.3794.0364-.7583.0786-1.1372.0818-.7578.2021-1.5154.3184-2.2744.2378-1.5164.3755-3.0417-.0298-4.5471-.2764-.9639-.5359-1.9321-.5596-2.9084-.1309-4.082.1365-8.2607-.7419-12.3203-.7815-3.5911-1.1868-7.2483-1.741-10.9326-.6006-3.6794-1.3035-7.3938-2.8396-10.9246-.1016-.24-.1975-.4885-.1899-.7576.1035-5.8667-3.1755-10.9612-6.2932-15.8901l-.8325-1.3364-.9185-1.3159c-.625-.8721-1.2002-1.7544-1.8711-2.606l-2.0552-2.5281c-.6636-.8455-1.4922-1.6223-2.238-2.4231l-1.1533-1.1819c-.3877-.3901-.8337-.7476-1.25-1.1184-.8542-.7285-1.6838-1.467-2.5737-2.1497-1.8542-1.3108-3.6875-2.604-5.7502-3.5898-1.7288-.9719-2.7556-3.2598-4.884-3.4951-.3604-.0444-.6042-.0779-1.0427-.1511l-1.2402-.2175c-.8157-.1179-1.6665-.2625-2.3638-.3274-1.4084-.1606-2.5974-.271-3.7385-.3816-2.2712-.2156-4.3333-.4106-6.3362-.1831-1.7542.2007-3.4465.3469-5.0835.4375l-5.2329.2251c-1.7942.0867-3.6143.2017-5.5071.4324-.9443.1125-1.9143.2625-2.9167.4553l-.8669.1855-.979.2449c-.6484.1782-1.292.3752-1.9165.6223-1.0789.4299-2.0706,1.0498-3.0422,1.6863-.4712.3145-.7114.4866-1.0564.7339l-.9238.6895c-.6094.4685-1.1423,1.0212-1.6924,1.5242l-.5532.4758-.6687.5532c-.4617.3486-.8901.7292-1.3718,1.0593-1.3667.9954-2.2961,2.0811-2.9668,3.2288-.3337.5725-.624,1.167-.8206,1.7559-.2197.5972-.3845,1.2031-.4829,1.8079-.1926.9729-.6843,1.7603-1.1055,2.5935-1.6536,3.4912-3.2786,6.8479-3.9189,10.3821-.7397,4.1155-2.5735,7.8823-3.0212,11.9307-.3452,3.1584-1.3083,6.1772-1.9111,9.2573-.384,1.8882-.5068,3.8025-.5757,5.7212l-.0498,2.8755-.0154,1.4346-.0022.1792-.0212.3674-.0493.7986-.1042,1.5957c-.4934,8.1794-.7583,16.3218-.8167,25.5491-1.0537,2.501,1.0327,5.8428,1.2454,9.3359.1873,3.2007,1.8962,3.4277,4.7744,1.4939Z"/>
  </g>
  <path class="cls-3" d="M211.8847,142.5573l.0033,23.3006c3.0493-6.9947,7.1733-13.6562,12.3778-17.5158,5.2009-3.8541,11.5714-5.7848,19.1063-5.7848h19.9111l.0003,16.562h-22.3326c-5.7447,0-10.8105,1.615-15.2047,4.845-4.3979,3.2282-7.8031,8.3871-10.2247,15.4712-2.4216,7.0896-3.6333,16.4602-3.6333,28.1193v63.5051"/>
  <path class="cls-3" d="M801.0096,275.1499c5.0222-3.5054,7.521-8.4087,8.967-13.9248,1.3557-5.1721,2.2727-10.4065,2.8696-15.6721.2983-2.6328.5166-5.2734.6699-7.9177l.0544-.9109.0486-.1938.0798-.3877c.0459-.2585.0771-.5173.0959-.7761.2717-3.748-1.071-7.4902-.8062-11.2458.4438-6.3035-1.9321-12.6045-1.6128-18.9163.2412-4.7683-1.3513-9.5393-1.8813-14.3098-.3027-2.7229-.9202-5.4409-.4675-8.1724.5251-3.168-.657-6.3459-1.1284-9.5193-.6169-4.1519-1.1724-8.3042-1.9409-12.4553-.3354-1.812-.8474-3.6211-.7886-5.4365.0303-.9326-.0298-1.8645-.0457-2.7966-.0081-.4663-.0049-.9326.0259-1.3992.0154-.2332.0376-.4666.0691-.7l.012-.0876.0066-.0437c.0022-.0125.0044-.0146.0066-.1138l.0288-.8965.0691-1.7937c.4634-10.7664-1.1145-21.5889.835-32.3535.3635-2.0056-.5942-3.9966-2.8342-4.4897-1.9238-.4231-2.9668,1.301-3.5125,2.7319-1.5002,3.9338-3.4321,7.6694-5.436,11.3687-1.0212,1.8855-1.666,3.7649-2.033,5.8862-.9072,5.24-1.4209,10.51-1.7161,15.7876l-.1829,3.8684c-.0493.2578-.0876.5156-.1177.7734-.0603.5159-.0876,1.0315-.1042,1.5461-.0942,2.9285.5295,5.8596,1.2712,8.7859.3213,1.2664-1.2371,2.5117-.5364,3.7732.2241.4036.4309.8105.4014,1.2153-.1223,1.6948-.7791,3.3926-.4226,5.0833.6321,2.999-.8206,5.9946-.0042,8.9912.0278.1021.0476.2065-.0381.3066-1.8535,2.1692-.6868,4.3621-.3369,6.5225.5012,3.0979.8269,6.2017,1.7651,9.2981.2102.6924-1.4167,1.3699-.6494,2.0266,1.8528,1.5857.9607,3.1904,1.5542,4.783,1.2678,3.4021.1453,6.8105.4924,10.2158.0623.6143.5444,1.2373.1458,1.8406-.562.8501-.3157,1.6758.4258,2.512.2954.3333.1697.6814.144,1.0225-.1108,1.4519-.6072,2.9065-.2971,4.355.364,1.6987-.6443,3.3889-.3643,5.0828.2192,1.3281-.2649,2.6499-.4565,3.9746-.1177.812-.0203,1.625.1377,2.4385l.2625,1.2202.1289.6101.0151.0764.0144.345.0281.7808.0505,1.5613c.2336,8.0112.4675,16.0222.7332,25.1321-.9653,2.5002,1.2253,5.7378,1.501,9.2024.252,3.1663,1.9651,3.3757,4.8037,1.395Z"/>
  <g>
    <rect class="cls-3" x="788.7057" y="55.9651" width="26.3122" height="30.627"/>
    <path class="cls-3" d="M788.9899,56.3916c-1.6743,1.1685-2.5071,2.803-2.9893,4.6416-.4519,1.7241-.7576,3.4688-.9565,5.2241-.0994.8774-.1724,1.7578-.2234,2.6392l-.0608.9048-.0322.7844c-.0906,3.7886.3572,7.5713.2688,11.3674l-.0168,1.637.0012,2.2422.0476,4.437,6.9683-.1543.7803-.0229.4524-.0234.9048-.0471,1.8098-.092c2.4136-.1174,4.8279-.2061,7.2437-.1658,1.9712.033,3.9426-.0364,5.9143-.1418l1.479-.085.3696-.0227.5823-.0229,1.2649-.0466,4.8909-.1819-.126-4.4399c-.0505-2.6538-.1272-3.5024-.1724-4.9919-.0452-1.376-.0588-2.7532.0166-4.1335.175-3.2021-.219-6.4146-.3762-9.6223l-.2437-5.0552-.2595-6.5645-3.4724.1438-1.8464.0911-1.4167.0896c-.9155.0542-1.8315.092-2.749.0823-1.7026-.0183-3.4028.0615-5.1086-.0239l-.9258-.0337c-3.5886-.1545-7.1963.3716-10.7844-.2783-.6687-.1211-1.3323.198-1.4966.9446-.1411.6414.4336.989.9106,1.1709,1.3113.5,2.5564,1.144,3.7896,1.812.6284.3406,1.2549.5554,1.9619.6777,1.7468.3025,3.5034.4736,5.2627.572l2.0864.1003,1.5627.0347c1.48.0156,2.9607-.0283,4.4412-.1074l2.2202-.1414c.1848-.0537.1968-.113.3567-.1748.1184-.0503.1575.042.1121.144-.0874.156-.1589.2212-.042.2139.0747-.0022.1436.0308.1338.0852-.0051.0276-.0129.0549-.0227.0806-.0024.0142-.0049-.0046-.0076.0366l-.0081.1606-.0176.3213-.0745,1.2854c-.0449.8567-.0701,1.7129-.0105,2.5674.2107,3.0315-.2737,6.0596-.0015,9.0884.0093.1033.0159.209-.0127.3101-.6179,2.1926-.229,4.4092-.1125,6.593l.0803,1.5723.0388.7334.0388.0767c.0527.1133.1086.2654.1777.4819-.0789.0684-.1948.1494-.3831.2529-.0322.0173-.0737-.0034-.1106-.0403-.0652-.0371.011-.0903-.2253-.1377-.3416-.095-.679-.1665-1.0107-.0386-1.6028.6177-3.2249.3201-4.8347.5181-3.439.4226-6.8843.0483-10.3262.1641-.6208.0208-1.2507.1814-1.8606.0486l-.1497-.032-.051-.0259c-.0334-.0151-.0657-.0264-.0977-.0337-.064-.0149-.1274-.0144-.197-.0005-.1384.0281-.3022.1104-.5327.2339-.1868.0986-.302.0566-.4226.0481l-.1909-.019c-.0007-.0684.0146-.1516.0222-.2258l.0566-.4404c.033-.2825.0486-.5249-.0032-.782l-.01-.0642-.0076-.1609-.0083-.3218.0068-.6428c.0129-.4285.0408-.8564.0693-1.2842.0571-.8557.1179-1.7109.0713-2.5669-.0732-1.3425.0881-2.6787.1521-4.0176.0701-1.4658-.0886-2.9351-.1821-4.4033l-.0303-.8921c-.0779-2.6704-.1558-5.3408-.2444-8.3774.3218-.8333-.4082-1.9126-.5002-3.0674-.084-1.0554-.655-1.1252-1.6011-.4651Z"/>
  </g>
  <path class="cls-3" d="M211.0336,275.1238c5.0222-3.5054,7.521-8.4089,8.967-13.925,1.3557-5.1719,2.2727-10.4065,2.8694-15.6719.2986-2.6328.5168-5.2734.6702-7.918l.0544-.9033.0483-.1223c.0305-.0813.0569-.1628.0798-.2444.0459-.1628.0774-.3259.0962-.489.2717-2.3618-1.071-4.7202-.8062-7.0867.4438-3.9724-1.9321-7.9431-1.6128-11.9207.2412-3.0049-1.3513-6.0112-1.8813-9.0176-.3027-1.7158-.9202-3.4287-.4675-5.1501.5251-1.9963-.6567-3.9988-1.1284-5.9988-.6169-2.6162-1.1721-5.2329-1.9409-7.8489-.3352-1.1418-.8472-2.282-.7883-3.4258.03-.5879-.0298-1.175-.0457-1.7627-.0081-.2937-.0051-.5874.0256-.8816.0154-.147.0378-.2939.0691-.4412l.0122-.0552.0063-.0276c.0022-.0068.0044-.0024.0068-.1038l.0288-.8965.0691-1.7937c.4634-10.7664-1.1145-21.5889.8347-32.3535.3635-2.0056-.594-3.9966-2.8342-4.4897-1.9238-.4231-2.9666,1.301-3.5122,2.7319-1.5002,3.9338-3.4324,7.6694-5.4363,11.3687-1.0212,1.8855-1.6658,3.7649-2.033,5.8862-.9072,5.24-1.4207,10.51-1.7158,15.7876l-.1831,3.8601c-.0491.1626-.0874.3252-.1174.4875-.0603.325-.0876.6499-.1042.9744-.0942,1.8452.5295,3.6924,1.2712,5.5366.3213.7981-1.2373,1.5828-.5364,2.3777.2241.2544.4307.5107.4014.7659-.1223,1.0681-.7791,2.1379-.4226,3.2034.6321,1.8899-.8208,3.7776-.0042,5.666.0276.0642.0474.1301-.0381.1934-1.8538,1.3669-.687,2.7488-.3372,4.1101.5012,1.9521.8269,3.9082,1.7654,5.8594.21.4363-1.417.8633-.6497,1.2771,1.8528.9993.9607,2.0105,1.5542,3.0142,1.2678,2.144.1453,4.292.4924,6.4377.0623.387.5444.7798.1458,1.1599-.562.5356-.3157,1.0559.4258,1.583.2954.21.1697.4292.1438.6443-.1106.915-.6072,1.8315-.2969,2.7444.364,1.0706-.6443,2.1355-.3645,3.2029.2195.8369-.2649,1.6699-.4565,2.5046-.1174.5117-.02,1.0242.1377,1.5369l.2627.769.1289.3843.0149.0481.0146.3411.0281.7805.0505,1.5613c.2336,8.0115.4675,16.0225.7332,25.1323-.9653,2.5002,1.2253,5.7378,1.5012,9.2024.2517,3.1663,1.9648,3.3755,4.8035,1.395Z"/>
  <g>
    <rect class="cls-1" x="55.2859" y="286.8113" width="774.0027" height="56.7813"/>
    <path class="cls-3" d="M60.3136,306.4514h16.2852v2.7568h-13.1914v10.416h11.5156v2.7129h-11.5156v10.3711h-3.0938v-26.2568Z"/>
    <path class="cls-3" d="M88.7159,311.8782c5.7578,0,9.4961,4.4199,9.4961,10.5898,0,6.127-3.3516,10.7227-9.4961,10.7227-6.1875,0-9.5391-4.5957-9.5391-10.7227,0-6.1699,3.7383-10.5898,9.5391-10.5898ZM88.673,330.6516c4.5547,0,6.5742-3.7188,6.5742-8.2266,0-4.5518-2.1484-8.0088-6.5312-8.0088s-6.5742,3.457-6.5742,8.0088c0,4.5078,1.9766,8.2266,6.5312,8.2266Z"/>
    <path class="cls-3" d="M102.423,312.3587h2.75v5.9521l.3438.0439c1.418-4.0254,4.3828-6.4336,8.0781-6.4336,1.9336,0,3.5664.5254,5.5,1.5762l-.7734,2.7568c-1.7617-1.0068-3.5664-1.5752-5.1992-1.5752-4.6406,0-7.7344,3.1074-7.7344,8.0527v9.9766h-2.9648v-20.3496Z"/>
    <path class="cls-3" d="M248.1583,305.97c5.1992,0,8.1211,3.0635,8.8516,8.665l-2.8789.7002c-.8594-4.6387-2.5352-6.6074-6.0156-6.6074-4.8984,0-6.6602,3.9814-6.6602,10.8516,0,7.0469,1.8047,10.8975,6.5742,10.8975,3.8672,0,5.457-2.0566,6.3164-6.7832l2.9219.6572c-.8164,5.6885-3.6523,8.8398-9.2812,8.8398-6.5312,0-9.625-4.9023-9.625-13.6113s3.3945-13.6094,9.7969-13.6094Z"/>
    <path class="cls-3" d="M260.7482,312.3587h2.9219v13.2168c0,3.1074,1.0742,4.8574,3.8672,4.8574,3.6523,0,6.3164-2.8887,6.3164-6.7393v-11.335h2.9219v20.3496h-2.793v-5.0322h-.5586c-1.2031,3.0195-3.7812,5.5146-7.0469,5.5146-3.5234,0-5.6289-2.4512-5.6289-7.002v-13.8301Z"/>
    <path class="cls-3" d="M280.7286,330.2141h7.8203v-24.332h-7.4336v-2.4941h10.3984v26.8262h7.1328v2.4941h-17.918v-2.4941Z"/>
    <path class="cls-3" d="M305.9942,314.8538h-5.1992v-2.4951h5.1992v-5.9072h2.9219v5.9072h10.3125v2.4951h-10.3125v10.0215c0,3.7637,1.4609,5.6885,5.0703,5.6885,1.5039,0,3.0078-.3057,5.0273-1.2686l.6445,2.4072c-2.2344,1.0059-4.125,1.4883-6.2305,1.4883-5.1562,0-7.4336-3.2383-7.4336-7.834v-10.5029Z"/>
    <path class="cls-3" d="M323.2677,312.3587h2.9219v13.2168c0,3.1074,1.0742,4.8574,3.8672,4.8574,3.6523,0,6.3164-2.8887,6.3164-6.7393v-11.335h2.9219v20.3496h-2.793v-5.0322h-.5586c-1.2031,3.0195-3.7812,5.5146-7.0469,5.5146-3.5234,0-5.6289-2.4512-5.6289-7.002v-13.8301Z"/>
    <path class="cls-3" d="M345.0948,312.3587h2.75v5.9521l.3438.0439c1.418-4.0254,4.3828-6.4336,8.0781-6.4336,1.9336,0,3.5664.5254,5.5,1.5762l-.7734,2.7568c-1.7617-1.0068-3.5664-1.5752-5.1992-1.5752-4.6406,0-7.7344,3.1074-7.7344,8.0527v9.9766h-2.9648v-20.3496Z"/>
    <path class="cls-3" d="M364.0011,322.5999c0-6.7393,3.8672-10.7217,9.4961-10.7217,5.5,0,8.5508,3.6318,8.5508,9.1895,0,.4824-.043,1.3574-.1289,2.1016h-14.9531c.1719,4.7695,2.2344,7.5264,6.4883,7.5264,3.4805,0,5.1562-1.9697,5.8438-4.2451l2.5781.6562c-.9453,3.6328-3.7383,6.084-8.3789,6.084-6.0586,0-9.4961-3.8955-9.4961-10.5908ZM379.298,321.0247c-.1289-4.333-1.9766-6.7832-5.8867-6.7832-3.7383,0-5.9727,2.2754-6.4023,6.7832h12.2891Z"/>
    <path class="cls-3" d="M388.9659,338.3548l2.8359-12.6914h4.8555l-5.7148,13.1719h-1.9766v-.4805Z"/>
    <path class="cls-3" d="M532.381,305.97c6.4023,0,10.0117,4.8574,10.0117,13.5664,0,8.752-3.6094,13.6543-10.0117,13.6543-6.4453,0-10.0547-4.9023-10.0547-13.6543,0-8.709,3.6094-13.5664,10.0547-13.5664ZM532.381,330.4329c4.6406,0,6.918-3.5879,6.918-10.8965,0-7.2646-2.2773-10.8086-6.918-10.8086-4.6836,0-6.9609,3.5439-6.9609,10.8086,0,7.3086,2.2773,10.8965,6.9609,10.8965Z"/>
    <path class="cls-3" d="M549.0099,314.8538h-5.543v-2.4951h5.543v-.4805c0-5.208,2.4922-8.9277,8.3359-8.9277,1.8047,0,3.6953.1758,5.8008,1.0508l-.6445,2.1875c-1.6328-.6133-3.0938-.7441-4.8984-.7441-3.9961,0-5.6719,2.2324-5.6719,6.6953v.2188h11v2.4951h-11v17.8545h-2.9219v-17.8545Z"/>
    <path class="cls-3" d="M691.8233,305.97c5.1992,0,8.1211,3.0635,8.8516,8.665l-2.8789.7002c-.8594-4.6387-2.5352-6.6074-6.0156-6.6074-4.8984,0-6.6602,3.9814-6.6602,10.8516,0,7.0469,1.8047,10.8975,6.5742,10.8975,3.8672,0,5.457-2.0566,6.3164-6.7832l2.9219.6572c-.8164,5.6885-3.6523,8.8398-9.2812,8.8398-6.5312,0-9.625-4.9023-9.625-13.6113s3.3945-13.6094,9.7969-13.6094Z"/>
    <path class="cls-3" d="M704.4132,312.3587h2.9219v13.2168c0,3.1074,1.0742,4.8574,3.8672,4.8574,3.6523,0,6.3164-2.8887,6.3164-6.7393v-11.335h2.9219v20.3496h-2.793v-5.0322h-.5586c-1.2031,3.0195-3.7812,5.5146-7.0469,5.5146-3.5234,0-5.6289-2.4512-5.6289-7.002v-13.8301Z"/>
    <path class="cls-3" d="M724.3937,330.2141h7.8203v-24.332h-7.4336v-2.4941h10.3984v26.8262h7.1328v2.4941h-17.918v-2.4941Z"/>
    <path class="cls-3" d="M749.6593,314.8538h-5.1992v-2.4951h5.1992v-5.9072h2.9219v5.9072h10.3125v2.4951h-10.3125v10.0215c0,3.7637,1.4609,5.6885,5.0703,5.6885,1.5039,0,3.0078-.3057,5.0273-1.2686l.6445,2.4072c-2.2344,1.0059-4.125,1.4883-6.2305,1.4883-5.1562,0-7.4336-3.2383-7.4336-7.834v-10.5029Z"/>
    <path class="cls-3" d="M766.9327,312.3587h2.9219v13.2168c0,3.1074,1.0742,4.8574,3.8672,4.8574,3.6523,0,6.3164-2.8887,6.3164-6.7393v-11.335h2.9219v20.3496h-2.793v-5.0322h-.5586c-1.2031,3.0195-3.7812,5.5146-7.0469,5.5146-3.5234,0-5.6289-2.4512-5.6289-7.002v-13.8301Z"/>
    <path class="cls-3" d="M788.7608,312.3587h2.75v5.9521l.3438.0439c1.418-4.0254,4.3828-6.4336,8.0781-6.4336,1.9336,0,3.5664.5254,5.5,1.5762l-.7734,2.7568c-1.7617-1.0068-3.5664-1.5752-5.1992-1.5752-4.6406,0-7.7344,3.1074-7.7344,8.0527v9.9766h-2.9648v-20.3496Z"/>
    <path class="cls-3" d="M807.6671,322.5999c0-6.7393,3.8672-10.7217,9.4961-10.7217,5.5,0,8.5508,3.6318,8.5508,9.1895,0,.4824-.043,1.3574-.1289,2.1016h-14.9531c.1719,4.7695,2.2344,7.5264,6.4883,7.5264,3.4805,0,5.1562-1.9697,5.8438-4.2451l2.5781.6562c-.9453,3.6328-3.7383,6.084-8.3789,6.084-6.0586,0-9.4961-3.8955-9.4961-10.5908ZM822.964,321.0247c-.1289-4.333-1.9766-6.7832-5.8867-6.7832-3.7383,0-5.9727,2.2754-6.4023,6.7832h12.2891Z"/>
  </g>
  <path class="cls-2" d="M55.3194,275.5501V54.6165h69.1553c13.2734,0,24.2598,2.4756,32.9629,7.417,8.6992,4.9463,15.2031,11.6289,19.5088,20.042,4.3057,8.418,6.458,17.9902,6.458,28.7217,0,11.3623-2.1104,20.8311-6.3232,28.4053-4.2168,7.5752-9.6875,13.3652-16.4141,17.3594-6.7275,3.999-13.8584,6.4209-21.3926,7.2588l4.3047-3.1562c8.0732.2129,15.4727,2.792,22.2002,7.7334,6.7275,4.9463,12.1514,11.4707,16.2793,19.5684,4.125,8.1025,6.1895,17.2012,6.1895,27.3008,0,11.1553-2.3799,21.3047-7.1309,30.457-4.7549,9.1533-11.6631,16.4121-20.7197,21.7783-9.0605,5.3652-20.2275,8.0479-33.501,8.0479H55.3194ZM79.5372,150.8802h42.7842c11.6592,0,20.6279-3.2598,26.9092-9.7842,6.2773-6.5195,9.418-15.4648,9.418-26.8271,0-10.9385-3.0527-19.7266-9.1494-26.3545-6.1006-6.6279-15.4297-9.9414-27.9844-9.9414h-41.9775v72.9072ZM79.5372,251.8782h44.668c12.5547,0,22.2422-3.417,29.0615-10.2568,6.8154-6.835,10.2256-16.3584,10.2256-28.5635s-3.5908-21.8818-10.7637-29.0371c-7.1768-7.1514-16.8643-10.7314-29.0615-10.7314h-44.1299v78.5889Z"/>
</svg>